<svg width="800" height="400" viewBox="0 0 800 400" xmlns="http://www.w3.org/2000/svg">
  <!-- Background -->
  <defs>
    <linearGradient id="mriBg" x1="0%" y1="0%" x2="100%" y2="100%">
      <stop offset="0%" style="stop-color:#1a202c;stop-opacity:1" />
      <stop offset="100%" style="stop-color:#2d3748;stop-opacity:1" />
    </linearGradient>
    <radialGradient id="scanGlow" cx="50%" cy="50%" r="50%">
      <stop offset="0%" style="stop-color:#4299e1;stop-opacity:0.6" />
      <stop offset="100%" style="stop-color:#4299e1;stop-opacity:0" />
    </radialGradient>
  </defs>
  
  <rect width="800" height="400" fill="url(#mriBg)"/>
  
  <!-- Main MRI viewer interface -->
  <g transform="translate(50, 50)">
    <!-- Main viewer panel -->
    <rect x="0" y="0" width="500" height="300" rx="5" fill="rgba(255,255,255,0.05)" stroke="#4299e1" stroke-width="2"/>
    
    <!-- MRI scan visualization -->
    <g transform="translate(250, 150)">
      <!-- Brain outline simulation -->
      <circle cx="0" cy="0" r="80" fill="url(#scanGlow)" opacity="0.4"/>
      <ellipse cx="0" cy="0" rx="75" ry="65" fill="none" stroke="#4299e1" stroke-width="2" opacity="0.8"/>
      
      <!-- Brain hemisphere division -->
      <line x1="0" y1="-60" x2="0" y2="60" stroke="#4299e1" stroke-width="1" opacity="0.6"/>
      
      <!-- Brain regions -->
      <ellipse cx="-25" cy="-20" rx="20" ry="15" fill="none" stroke="#4299e1" stroke-width="1" opacity="0.5"/>
      <ellipse cx="25" cy="-20" rx="20" ry="15" fill="none" stroke="#4299e1" stroke-width="1" opacity="0.5"/>
      <ellipse cx="0" cy="20" rx="30" ry="20" fill="none" stroke="#4299e1" stroke-width="1" opacity="0.5"/>
      
      <!-- Scan lines -->
      <g stroke="#63b3ed" stroke-width="1" opacity="0.4">
        <line x1="-70" y1="-50" x2="70" y2="-50"/>
        <line x1="-70" y1="-25" x2="70" y2="-25"/>
        <line x1="-70" y1="0" x2="70" y2="0"/>
        <line x1="-70" y1="25" x2="70" y2="25"/>
        <line x1="-70" y1="50" x2="70" y2="50"/>
      </g>
    </g>
  </g>
  
  <!-- Side control panel -->
  <g transform="translate(570, 50)">
    <rect x="0" y="0" width="180" height="300" rx="5" fill="rgba(255,255,255,0.05)" stroke="#4299e1" stroke-width="2"/>
    
    <!-- Control buttons -->
    <g fill="rgba(66,153,225,0.2)" stroke="#4299e1" stroke-width="1">
      <rect x="20" y="30" width="140" height="25" rx="3"/>
      <rect x="20" y="65" width="140" height="25" rx="3"/>
      <rect x="20" y="100" width="140" height="25" rx="3"/>
      <rect x="20" y="135" width="140" height="25" rx="3"/>
    </g>
    
    <!-- Control labels -->
    <g fill="#4299e1" font-family="Arial, sans-serif" font-size="10">
      <text x="90" y="47" text-anchor="middle">AXIAL VIEW</text>
      <text x="90" y="82" text-anchor="middle">SAGITTAL VIEW</text>
      <text x="90" y="117" text-anchor="middle">CORONAL VIEW</text>
      <text x="90" y="152" text-anchor="middle">3D RENDER</text>
    </g>
    
    <!-- Measurement display -->
    <rect x="20" y="180" width="140" height="60" rx="3" fill="rgba(255,255,255,0.05)" stroke="#4299e1" stroke-width="1"/>
    <g fill="#4299e1" font-family="monospace" font-size="9">
      <text x="30" y="195">Resolution: 512x512</text>
      <text x="30" y="210">Slice: 45/120</text>
      <text x="30" y="225">Zoom: 150%</text>
    </g>
    
    <!-- Performance indicator -->
    <rect x="20" y="260" width="140" height="25" rx="3" fill="rgba(46,204,113,0.2)" stroke="#2ecc71" stroke-width="1"/>
    <text x="90" y="277" text-anchor="middle" fill="#2ecc71" font-family="Arial, sans-serif" font-size="10" font-weight="bold">
      LOAD TIME: 0.2s
    </text>
  </g>
  
  <!-- Performance metrics -->
  <g transform="translate(50, 370)">
    <g fill="#4299e1" font-family="Arial, sans-serif" font-size="12">
      <text x="0" y="0">90% Faster Load Times</text>
      <text x="200" y="0">Real-time Processing</text>
      <text x="400" y="0">DICOM Compatible</text>
      <text x="600" y="0">WebGL Accelerated</text>
    </g>
  </g>
  
  <!-- Data flow indicators -->
  <g stroke="#63b3ed" stroke-width="2" fill="none" opacity="0.6">
    <path d="M30,200 Q100,180 180,200"/>
    <path d="M30,220 Q100,200 180,220"/>
    <path d="M30,240 Q100,220 180,240"/>
  </g>
  
  <!-- Title -->
  <text x="400" y="30" text-anchor="middle" fill="#ffffff" font-family="Arial, sans-serif" font-size="24" font-weight="bold" opacity="0.9">
    MRI Viewer System
  </text>
</svg>